#!OML:ASF X:\für Bonn\!DataBase\2005_08_11_Bastian_Final\c3d\Bastian.ASF
:FULLY-SPECIFIED
:DEGREES
47
root -0.211069 14.4817 5.88476 171.506 -11.2906 -180.045
lowerback 19.6819 -2.36974 -0.955727
upperback 5.06827 -4.2065 -1.62823
thorax -5.56899 -2.38301 -0.155655
lowerneck -7.26757 -7.0148 -3.93082
upperneck -6.83239 -9.60334 11.4871
head -0.106589 -5.10356 4.18339
rclavicle 1.21259e-014 -1.74931e-014
rhumerus 67.5748 17.5574 -4.46501
rradius 38.3258
rwrist -48.7488
rhand -44.3319 -5.03904
rfingers 7.12502
rthumb -17.1407 -34.303
lclavicle 1.21259e-014 -1.74931e-014
lhumerus 69.7803 -15.8475 -5.9845
lradius 32.074
lwrist 0.820104
lhand -43.182 12.5452
lfingers 7.12502
lthumb -16.0336 41.9018
rfemur -25.3297 -20.1387 18.3793
rtibia 85.7282
rfoot -37.7212 -0.243825
rtoes 1.8704
lfemur -26.9189 5.17728 -18.3561
ltibia 82.7358
lfoot -29.4135 -19.8506
ltoes 9.04914
48
root -0.206959 14.2993 5.90377 171.518 -11.1962 -180.091
lowerback 19.9874 -2.33579 -0.895672
upperback 5.05415 -4.1709 -1.69914
thorax -5.75407 -2.36815 -0.256077
lowerneck -7.18569 -7.01627 -3.88783
upperneck -7.11246 -9.61045 11.5028
head -0.213114 -5.12706 4.19273
rclavicle -1.49089e-014 -1.11319e-014
rhumerus 67.482 17.0545 -4.68032
rradius 38.2604
rwrist -48.4175
rhand -44.1627 -5.21389
rfingers 7.12502
rthumb -16.9778 -34.4919
lclavicle -1.49089e-014 -1.11319e-014
lhumerus 69.8531 -15.3609 -6.24572
lradius 32.0647
lwrist 1.02324
lhand -43.3994 12.783
lfingers 7.12502
lthumb -16.243 42.1226
rfemur -26.8299 -20.6483 18.2528
rtibia 88.3772
rfoot -37.7936 0.042324
rtoes 1.43847
lfemur -28.1949 5.37148 -18.3384
ltibia 85.0559
lfoot -29.8433 -20.2962
ltoes 9.73021
49
root -0.202358 14.1123 5.92483 171.524 -11.0858 -180.136
lowerback 20.318 -2.29271 -0.831014
upperback 5.05207 -4.12604 -1.77464
thorax -5.93954 -2.35037 -0.365989
lowerneck -7.18051 -7.02718 -3.86239
upperneck -7.33808 -9.63232 11.5424
head -0.285078 -5.15454 4.20821
rclavicle 2.34566e-014 5.56597e-015
rhumerus 67.383 16.5342 -4.87089
rradius 38.2189
rwrist -48.0861
rhand -43.9882 -5.47725
rfingers 7.12502
rthumb -16.8099 -34.7696
lclavicle 2.34566e-014 5.56597e-015
lhumerus 69.9456 -14.8577 -6.41291
lradius 32.0294
lwrist 1.18162
lhand -43.5638 13.0306
lfingers 7.12502
lthumb -16.4012 42.3572
rfemur -28.317 -21.1444 18.1444
rtibia 90.9776
rfoot -37.7931 0.284966
rtoes 0.909044
lfemur -29.5134 5.5832 -18.3101
ltibia 87.4178
lfoot -30.2787 -20.7058
ltoes 10.0851
50
root -0.198455 13.9204 5.94646 171.535 -10.9837 -180.184
lowerback 20.6618 -2.26032 -0.773682
upperback 5.03438 -4.09502 -1.84879
thorax -6.14795 -2.33832 -0.466498
lowerneck -7.20325 -7.02347 -3.7999
upperneck -7.52446 -9.63771 11.5425
head -0.345049 -5.17166 4.20144
rclavicle 2.59414e-014 7.15625e-015
rhumerus 67.2768 16.0495 -5.14664
rradius 38.1727
rwrist -47.6586
rhand -43.7956 -5.68949
rfingers 7.12502
rthumb -16.6245 -34.9975
lclavicle 2.59414e-014 7.15625e-015
lhumerus 69.9865 -14.389 -6.51081
lradius 32.0254
lwrist 1.31056
lhand -43.7231 13.2815
lfingers 7.12502
lthumb -16.5547 42.5954
rfemur -29.7873 -21.6391 18.0323
rtibia 93.5444
rfoot -37.7668 0.577981
rtoes 0.465816
lfemur -30.8592 5.79921 -18.2883
ltibia 89.8149
lfoot -30.7086 -21.0686
ltoes 10.1911
51
root -0.193935 13.727 5.96886 171.554 -10.8688 -180.208
lowerback 20.9933 -2.21662 -0.692436
upperback 5.03136 -4.04535 -1.92114
thorax -6.33489 -2.31882 -0.585258
lowerneck -7.26169 -7.0387 -3.72482
upperneck -7.71896 -9.6718 11.5466
head -0.399659 -5.20424 4.19116
rclavicle 1.40143e-014 -3.97569e-015
rhumerus 67.1335 15.5466 -5.31113
rradius 38.1939
rwrist -47.3927
rhand -43.6656 -5.89326
rfingers 7.12502
rthumb -16.4993 -35.2117
lclavicle 1.40143e-014 -3.97569e-015
lhumerus 70.0667 -13.8977 -6.57312
lradius 32.0086
lwrist 1.51645
lhand -43.8776 13.393
lfingers 7.12502
lthumb -16.7033 42.6944
rfemur -31.2485 -22.1186 17.9701
rtibia 96.0697
rfoot -37.7737 0.801044
rtoes -0.0464896
lfemur -32.2535 6.04385 -18.2361
ltibia 92.2454
lfoot -31.1501 -21.3639
ltoes 9.83452
52
root -0.18891 13.5285 5.99241 171.579 -10.7823 -180.252
lowerback 21.3712 -2.17727 -0.62588
upperback 5.0134 -4.00558 -2.00354
thorax -6.56177 -2.30354 -0.702077
lowerneck -7.38366 -7.05976 -3.6463
upperneck -7.84788 -9.71658 11.5591
head -0.420737 -5.23835 4.17768
rclavicle 3.37934e-014 2.3059e-014
rhumerus 66.9508 15.0584 -5.49579
rradius 38.2361
rwrist -47.1807
rhand -43.5452 -6.033
rfingers 7.12502
rthumb -16.3833 -35.3611
lclavicle 3.37934e-014 2.3059e-014
lhumerus 70.1644 -13.4363 -6.62345
lradius 32.005
lwrist 1.70907
lhand -43.9856 13.4535
lfingers 7.12502
lthumb -16.8074 42.7461
rfemur -32.6876 -22.6637 17.8775
rtibia 98.5956
rfoot -37.8781 1.03293
rtoes -0.631433
lfemur -33.6793 6.26767 -18.2012
ltibia 94.7069
lfoot -31.5802 -21.6491
ltoes 9.27023
53
root -0.184184 13.3227 6.0157 171.59 -10.6801 -180.296
lowerback 21.7736 -2.13186 -0.574303
upperback 5.00245 -3.96292 -2.07659
thorax -6.79174 -2.28775 -0.801114
lowerneck -7.55981 -7.07521 -3.53531
upperneck -7.9705 -9.7589 11.5363
head -0.434531 -5.27109 4.14333
rclavicle -1.36167e-014 -3.65764e-014
rhumerus 66.765 14.5754 -5.59478
rradius 38.3444
rwrist -47.1249
rhand -43.5143 -6.02335
rfingers 7.12502
rthumb -16.3536 -35.3539
lclavicle -1.36167e-014 -3.65764e-014
lhumerus 70.2568 -12.9764 -6.72226
lradius 32.0137
lwrist 2.02851
lhand -44.0947 13.4347
lfingers 7.12502
lthumb -16.9123 42.7183
rfemur -34.0932 -23.2293 17.7751
rtibia 101.13
rfoot -38.0409 1.307
rtoes -1.01192
lfemur -35.1075 6.54154 -18.1612
ltibia 97.2047
lfoot -32.0632 -21.8421
ltoes 8.30263
54
root -0.179197 13.1112 6.03962 171.599 -10.579 -180.295
lowerback 22.1885 -2.09604 -0.470561
upperback 4.98924 -3.92135 -2.15409
thorax -7.03372 -2.27344 -0.934662
lowerneck -7.76714 -7.09006 -3.36952
upperneck -8.06724 -9.80708 11.4897
head -0.438493 -5.30666 4.08811
rclavicle -2.18663e-014 0
rhumerus 66.5502 14.0979 -5.65095
rradius 38.4976
rwrist -47.1897
rhand -43.5323 -5.9638
rfingers 7.12502
rthumb -16.371 -35.2929
lclavicle -2.18663e-014 0
lhumerus 70.3492 -12.5277 -6.81464
lradius 32.0436
lwrist 2.30331
lhand -44.1524 13.3411
lfingers 7.12502
lthumb -16.9679 42.6199
rfemur -35.4983 -23.8196 17.7263
rtibia 103.65
rfoot -38.2014 1.57217
rtoes -1.40621
lfemur -36.5888 6.83278 -18.0619
ltibia 99.7374
lfoot -32.5075 -22.0776
ltoes 7.35799
55
root -0.175102 12.8919 6.06389 171.632 -10.4793 -180.326
lowerback 22.5797 -2.04912 -0.400015
upperback 4.98256 -3.87282 -2.23252
thorax -7.25359 -2.25612 -1.05472
lowerneck -8.03328 -7.11519 -3.23294
upperneck -8.13988 -9.87014 11.4596
head -0.421018 -5.34751 4.03986
rclavicle -2.18663e-014 -7.95139e-015
rhumerus 66.316 13.6026 -5.8533
rradius 38.5971
rwrist -47.1368
rhand -43.5409 -5.81893
rfingers 7.12502
rthumb -16.3792 -35.1473
lclavicle -2.18663e-014 -7.95139e-015
lhumerus 70.4726 -12.0737 -6.96589
lradius 32.0789
lwrist 2.68693
lhand -44.1659 13.191
lfingers 7.12502
lthumb -16.9809 42.4688
rfemur -36.9353 -24.4721 17.6369
rtibia 106.177
rfoot -38.3968 1.86445
rtoes -1.68144
lfemur -38.1029 7.135 -18.0014
ltibia 102.285
lfoot -32.9716 -22.2879
ltoes 6.3034
56
root -0.169982 12.6731 6.08831 171.643 -10.3811 -180.348
lowerback 23.0023 -1.9987 -0.357699
upperback 4.97609 -3.82771 -2.30577
thorax -7.48704 -2.24061 -1.15186
lowerneck -8.30465 -7.12813 -3.02286
upperneck -8.21156 -9.92485 11.3863
head -0.40979 -5.38603 3.96347
rclavicle 1.72943e-014 -2.38542e-014
rhumerus 66.0648 13.107 -6.1997
rradius 38.6603
rwrist -47.0129
rhand -43.476 -5.59139
rfingers 7.12502
rthumb -16.3168 -34.9249
lclavicle 1.72943e-014 -2.38542e-014
lhumerus 70.6209 -11.6332 -7.3825
lradius 32.1681
lwrist 3.26937
lhand -44.2016 13.0905
lfingers 7.12502
lthumb -17.0153 42.3652
rfemur -38.3195 -25.1802 17.5534
rtibia 108.657
rfoot -38.6131 2.1319
rtoes -1.92211
lfemur -39.5859 7.42462 -17.9228
ltibia 104.808
lfoot -33.3936 -22.4602
ltoes 5.24238
57
root -0.164778 12.4554 6.11168 171.642 -10.3037 -180.35
lowerback 23.4155 -1.95063 -0.298348
upperback 4.98475 -3.7837 -2.38239
thorax -7.69969 -2.22733 -1.26389
lowerneck -8.56625 -7.1354 -2.74838
upperneck -8.3066 -9.98036 11.3043
head -0.412119 -5.42918 3.87396
rclavicle -7.55382e-015 1.82882e-014
rhumerus 65.7865 12.6112 -6.64651
rradius 38.6983
rwrist -46.7826
rhand -43.4351 -5.33165
rfingers 7.12502
rthumb -16.2773 -34.6684
lclavicle -7.55382e-015 1.82882e-014
lhumerus 70.8156 -11.1688 -8.02942
lradius 32.3159
lwrist 4.05376
lhand -44.2468 13.0404
lfingers 7.12502
lthumb -17.0587 42.3114
rfemur -39.6143 -25.946 17.469
rtibia 111.063
rfoot -38.8834 2.45608
rtoes -2.03748
lfemur -41.026 7.67179 -17.833
ltibia 107.28
lfoot -33.8119 -22.6061
ltoes 4.09603
58
root -0.160086 12.2322 6.13536 171.664 -10.2151 -180.371
lowerback 23.8189 -1.89734 -0.281387
upperback 4.98274 -3.74055 -2.44907
thorax -7.91533 -2.21298 -1.3419
lowerneck -8.81394 -7.13755 -2.48104
upperneck -8.38995 -10.0282 11.2
head -0.414829 -5.46708 3.7791
rclavicle -1.80894e-014 1.43125e-014
rhumerus 65.5363 12.1221 -7.17485
rradius 38.6666
rwrist -46.3726
rhand -43.346 -5.09975
rfingers 7.12502
rthumb -16.1915 -34.4435
lclavicle -1.80894e-014 1.43125e-014
lhumerus 70.9816 -10.7031 -8.53588
lradius 32.412
lwrist 4.62326
lhand -44.189 13.041
lfingers 7.12502
lthumb -17.0032 42.3168
rfemur -40.9566 -26.7748 17.3709
rtibia 113.455
rfoot -39.1987 2.77293
rtoes -2.02758
lfemur -42.5007 7.98561 -17.7542
ltibia 109.75
lfoot -34.1774 -22.8034
ltoes 3.22985
59
root -0.15457 12.0067 6.1589 171.657 -10.148 -180.392
lowerback 24.2558 -1.84727 -0.273312
upperback 4.98575 -3.70647 -2.51302
thorax -8.14179 -2.20369 -1.40876
lowerneck -8.96622 -7.13135 -2.19407
upperneck -8.53607 -10.0635 11.0767
head -0.457446 -5.50385 3.682
rclavicle 1.63003e-014 7.15625e-015
rhumerus 65.306 11.664 -7.69614
rradius 38.6272
rwrist -45.9133
rhand -43.2614 -4.89986
rfingers 7.12502
rthumb -16.1101 -34.2503
lclavicle 1.63003e-014 7.15625e-015
lhumerus 71.1153 -10.2546 -8.80993
lradius 32.4477
lwrist 4.89113
lhand -44.1449 13.0192
lfingers 7.12502
lthumb -16.9607 42.2986
rfemur -42.211 -27.6926 17.2423
rtibia 115.795
rfoot -39.6246 3.11867
rtoes -2.00919
lfemur -43.931 8.30558 -17.6651
ltibia 112.177
lfoot -34.5204 -23.0439
ltoes 2.5082
